HIERARCHY
ROOT pelvis
{
	OFFSET 0.003123 -0.351407 0.012037
	CHANNELS 6 Xposition Yposition Zposition Zrotation Yrotation Xrotation 
	JOINT left_hip
	{
		OFFSET 0.058189 -0.092763 -0.026001
		CHANNELS 3 Zrotation Yrotation Xrotation
		JOINT left_knee
		{
			OFFSET 0.054695 -0.378753 -0.009396
			CHANNELS 3 Zrotation Yrotation Xrotation
			JOINT left_ankle
			{
				OFFSET -0.043453 -0.403059 -0.031876
				CHANNELS 3 Zrotation Yrotation Xrotation
				JOINT left_foot
				{
					OFFSET 0.047257 -0.057997 0.118216
					CHANNELS 3 Zrotation Yrotation Xrotation
					End Site
					{
						OFFSET 0.000000 0.000000 0.000000
					}
				}
			}
		}
	}
	JOINT right_hip
	{
		OFFSET -0.063267 -0.103908 -0.021250
		CHANNELS 3 Zrotation Yrotation Xrotation
		JOINT right_knee
		{
			OFFSET -0.044210 -0.362380 -0.016824
			CHANNELS 3 Zrotation Yrotation Xrotation
			JOINT right_ankle
			{
				OFFSET 0.015417 -0.410728 -0.020192
				CHANNELS 3 Zrotation Yrotation Xrotation
				JOINT right_foot
				{
					OFFSET -0.038812 -0.058328 0.119049
					CHANNELS 3 Zrotation Yrotation Xrotation
					End Site
					{
						OFFSET 0.000000 0.000000 0.000000
					}
				}
			}
		}
	}
	JOINT spine_1
	{
		OFFSET -0.002763 0.109891 -0.027618
		CHANNELS 3 Zrotation Yrotation Xrotation
		JOINT spine_2
		{
			OFFSET 0.009448 0.131853 -0.005940
			CHANNELS 3 Zrotation Yrotation Xrotation
			JOINT spine_3
			{
				OFFSET -0.011330 0.052235 0.028447
				CHANNELS 3 Zrotation Yrotation Xrotation
				JOINT neck
				{
					OFFSET -0.012164 0.165167 -0.031615
					CHANNELS 3 Zrotation Yrotation Xrotation
					JOINT head
					{
						OFFSET 0.024783 0.160452 0.020737
						CHANNELS 3 Zrotation Yrotation Xrotation
						End Site
						{
							OFFSET 0.000000 0.000000 0.000000
						}
					}
				}
				JOINT left_collar
				{
					OFFSET 0.046364 0.084944 -0.007220
					CHANNELS 3 Zrotation Yrotation Xrotation
					JOINT left_shoulder
					{
						OFFSET 0.119239 0.057728 -0.015461
						CHANNELS 3 Zrotation Yrotation Xrotation
						JOINT left_elbow
						{
							OFFSET 0.254123 -0.072151 -0.042459
							CHANNELS 3 Zrotation Yrotation Xrotation
							JOINT left_wrist
							{
								OFFSET 0.251987 0.023221 -0.002472
								CHANNELS 3 Zrotation Yrotation Xrotation
								JOINT left_index_1
								{
									OFFSET 0.101902 -0.008688 0.019351
									CHANNELS 3 Zrotation Yrotation Xrotation
									JOINT left_index_2
									{
										OFFSET 0.030149 -0.011154 0.001151
										CHANNELS 3 Zrotation Yrotation Xrotation
										JOINT left_index_3
										{
											OFFSET 0.006504 -0.021577 -0.002433
											CHANNELS 3 Zrotation Yrotation Xrotation
											End Site
											{
												OFFSET 0.000000 0.000000 0.000000
											}
										}
									}
								}
								JOINT left_middle_1
								{
									OFFSET 0.109398 -0.006328 -0.003981
									CHANNELS 3 Zrotation Yrotation Xrotation
									JOINT left_middle_2
									{
										OFFSET 0.026472 -0.015218 -0.004641
										CHANNELS 3 Zrotation Yrotation Xrotation
										JOINT left_middle_3
										{
											OFFSET 0.005022 -0.023347 -0.001911
											CHANNELS 3 Zrotation Yrotation Xrotation
											End Site
											{
												OFFSET 0.000000 0.000000 0.000000
											}
										}
									}
								}
								JOINT left_pinky_1
								{
									OFFSET 0.084047 -0.014539 -0.043750
									CHANNELS 3 Zrotation Yrotation Xrotation
									JOINT left_pinky_2
									{
										OFFSET 0.012124 -0.014448 -0.005375
										CHANNELS 3 Zrotation Yrotation Xrotation
										JOINT left_pinky_3
										{
											OFFSET 0.003798 -0.018853 0.000167
											CHANNELS 3 Zrotation Yrotation Xrotation
											End Site
											{
												OFFSET 0.000000 0.000000 0.000000
											}
										}
									}
								}
								JOINT left_ring_1
								{
									OFFSET 0.097444 -0.009268 -0.027345
									CHANNELS 3 Zrotation Yrotation Xrotation
									JOINT left_ring_2
									{
										OFFSET 0.023561 -0.016057 -0.001895
										CHANNELS 3 Zrotation Yrotation Xrotation
										JOINT left_ring_3
										{
											OFFSET 0.004257 -0.023548 0.000814
											CHANNELS 3 Zrotation Yrotation Xrotation
											End Site
											{
												OFFSET 0.000000 0.000000 0.000000
											}
										}
									}
								}
								JOINT left_thumb_1
								{
									OFFSET 0.040636 -0.017977 0.025611
									CHANNELS 3 Zrotation Yrotation Xrotation
									JOINT left_thumb_2
									{
										OFFSET 0.021637 -0.017639 0.011623
										CHANNELS 3 Zrotation Yrotation Xrotation
										JOINT left_thumb_3
										{
											OFFSET 0.024002 -0.008356 0.006548
											CHANNELS 3 Zrotation Yrotation Xrotation
											End Site
											{
												OFFSET 0.000000 0.000000 0.000000
											}
										}
									}
								}
							}
						}
					}
				}
				JOINT right_collar
				{
					OFFSET -0.047695 0.084339 -0.013400
					CHANNELS 3 Zrotation Yrotation Xrotation
					JOINT right_shoulder
					{
						OFFSET -0.102578 0.053524 -0.012669
						CHANNELS 3 Zrotation Yrotation Xrotation
						JOINT right_elbow
						{
							OFFSET -0.271150 -0.036492 -0.026467
							CHANNELS 3 Zrotation Yrotation Xrotation
							JOINT right_wrist
							{
								OFFSET -0.249267 -0.004533 -0.015325
								CHANNELS 3 Zrotation Yrotation Xrotation
								JOINT right_index_1
								{
									OFFSET -0.099881 -0.011783 0.019600
									CHANNELS 3 Zrotation Yrotation Xrotation
									JOINT right_index_2
									{
										OFFSET -0.030148 -0.011154 0.001151
										CHANNELS 3 Zrotation Yrotation Xrotation
										JOINT right_index_3
										{
											OFFSET -0.006505 -0.021577 -0.002432
											CHANNELS 3 Zrotation Yrotation Xrotation
											End Site
											{
												OFFSET 0.000000 0.000000 0.000000
											}
										}
									}
								}
								JOINT right_middle_1
								{
									OFFSET -0.107376 -0.009422 -0.003734
									CHANNELS 3 Zrotation Yrotation Xrotation
									JOINT right_middle_2
									{
										OFFSET -0.026472 -0.015218 -0.004641
										CHANNELS 3 Zrotation Yrotation Xrotation
										JOINT right_middle_3
										{
											OFFSET -0.005022 -0.023347 -0.001911
											CHANNELS 3 Zrotation Yrotation Xrotation
											End Site
											{
												OFFSET 0.000000 0.000000 0.000000
											}
										}
									}
								}
								JOINT right_pinky_1
								{
									OFFSET -0.082027 -0.017634 -0.043503
									CHANNELS 3 Zrotation Yrotation Xrotation
									JOINT right_pinky_2
									{
										OFFSET -0.012123 -0.014448 -0.005374
										CHANNELS 3 Zrotation Yrotation Xrotation
										JOINT right_pinky_3
										{
											OFFSET -0.003798 -0.018852 0.000167
											CHANNELS 3 Zrotation Yrotation Xrotation
											End Site
											{
												OFFSET 0.000000 0.000000 0.000000
											}
										}
									}
								}
								JOINT right_ring_1
								{
									OFFSET -0.095423 -0.012362 -0.027099
									CHANNELS 3 Zrotation Yrotation Xrotation
									JOINT right_ring_2
									{
										OFFSET -0.023561 -0.016057 -0.001895
										CHANNELS 3 Zrotation Yrotation Xrotation
										JOINT right_ring_3
										{
											OFFSET -0.004257 -0.023548 0.000816
											CHANNELS 3 Zrotation Yrotation Xrotation
											End Site
											{
												OFFSET 0.000000 0.000000 0.000000
											}
										}
									}
								}
								JOINT right_thumb_1
								{
									OFFSET -0.038613 -0.021074 0.025861
									CHANNELS 3 Zrotation Yrotation Xrotation
									JOINT right_thumb_2
									{
										OFFSET -0.021636 -0.017639 0.011623
										CHANNELS 3 Zrotation Yrotation Xrotation
										JOINT right_thumb_3
										{
											OFFSET -0.024004 -0.008353 0.006547
											CHANNELS 3 Zrotation Yrotation Xrotation
											End Site
											{
												OFFSET 0.000000 0.000000 0.000000
											}
										}
									}
								}
							}
						}
					}
				}
			}
		}
	}
}
MOTION
Frames: 4
Frame Time: 0.050000
-0.649170 0.964632 -0.050888 -156.594105 77.451692 -161.266536 -0.332358 -1.292888 2.424350 3.114071 -1.571942 -2.610357 26.018207 11.267328 30.545733 0.000000 0.000000 0.000000 16.846210 -0.901692 -12.042469 -18.738555 -0.568767 14.421567 64.308457 8.169197 25.910264 0.000000 0.000000 0.000000 8.169153 -2.101847 9.953457 -21.471843 -1.296822 -18.547569 30.772957 38.382368 33.102250 2.818813 -2.448417 -26.270598 0.000000 0.000000 0.000000 12.699144 -10.857362 -13.868070 -88.042504 12.228209 -69.606377 -26.298344 -3.131662 -1.142510 7.186755 7.574120 52.773109 -10.366114 1.903088 -0.512647 13.713505 4.038863 11.942671 0.000000 0.000000 0.000000 0.372331 -0.497676 0.065507 -0.210378 -0.290805 13.810935 0.000000 0.000000 0.000000 36.285058 -13.293878 25.078908 -42.497365 2.283956 -12.499671 0.000000 0.000000 0.000000 16.635835 0.542946 2.436129 -20.556195 -0.831440 13.924513 0.000000 0.000000 0.000000 -14.595568 13.046110 16.801739 13.365571 -14.977587 -7.248071 0.000000 0.000000 0.000000 -5.765692 -10.391396 22.295994 77.732004 63.691619 104.126084 -65.226540 15.630438 -1.533247 -4.631868 -3.293964 -57.051772 -16.539138 -1.475344 4.560711 -15.079485 16.162211 -25.176638 0.000000 0.000000 0.000000 -1.239164 5.280027 -2.616136 -20.090728 5.024979 -14.979300 0.000000 0.000000 0.000000 6.616715 22.683896 -18.937695 -24.092503 -0.382307 7.486193 0.000000 0.000000 0.000000 9.182931 12.659523 -3.678831 -34.933560 -0.121934 -10.741905 0.000000 0.000000 0.000000 -44.589907 3.058878 -7.087868 27.937236 5.686669 8.463484 0.000000 0.000000 0.000000 
-0.645401 0.965599 -0.050888 -152.815330 77.546462 -159.269130 0.233162 -1.866939 5.812271 2.936663 -1.822259 -4.727431 27.995421 11.462496 32.237529 0.000000 0.000000 0.000000 17.005222 -0.538852 -9.194066 -17.869800 -0.430833 13.589778 65.529136 7.370489 25.216884 0.000000 0.000000 0.000000 9.496135 -2.692856 11.337637 -22.946699 -1.608505 -18.376321 31.461540 38.374986 33.343100 3.703165 -2.445204 -27.187754 0.000000 0.000000 0.000000 13.541437 -8.610854 -14.976263 -89.706613 13.709099 -71.927916 -26.421781 -2.173103 -1.382030 6.798713 5.633437 52.380518 -16.449723 2.596284 -0.683704 25.197362 -1.666385 20.975712 0.000000 0.000000 0.000000 0.357485 2.625889 1.802315 1.279119 -0.902764 19.497910 0.000000 0.000000 0.000000 44.277786 -15.151742 31.387652 -54.085735 1.712629 -21.863807 0.000000 0.000000 0.000000 20.754182 3.371490 3.162328 -25.553871 0.580966 11.622021 0.000000 0.000000 0.000000 -14.250184 15.343233 19.559272 12.040832 -14.820136 -6.461126 0.000000 0.000000 0.000000 -6.171100 -9.309278 23.595731 77.573606 64.616317 104.752902 -70.110201 15.715010 -0.986626 -5.339847 -3.243102 -58.768063 -16.668304 -2.915346 5.203917 -16.556629 14.086643 -24.387836 0.000000 0.000000 0.000000 0.141556 3.833502 -1.853419 -19.998617 4.952148 -15.696504 0.000000 0.000000 0.000000 6.594150 22.296595 -18.579471 -24.735758 -0.134227 6.636535 0.000000 0.000000 0.000000 8.469461 11.559028 -3.244762 -31.003523 0.453712 -12.056191 0.000000 0.000000 0.000000 -44.531682 1.192141 -6.048200 26.056295 5.649976 7.476856 0.000000 0.000000 0.000000 
-0.641632 0.965599 -0.050888 -153.376319 77.430249 -159.550452 -0.090577 -1.815151 6.017911 3.104627 -1.776876 -4.611001 28.293573 11.348287 30.789718 0.000000 0.000000 0.000000 15.908118 -0.385936 -8.753429 -16.296806 -0.487894 13.465704 66.193673 7.906724 23.916932 0.000000 0.000000 0.000000 8.940367 -2.466753 11.009632 -21.690926 -1.323111 -18.387938 31.233817 38.628501 33.282363 3.007035 -3.243842 -27.937514 0.000000 0.000000 0.000000 12.382885 -9.890444 -16.589719 -88.701862 14.797567 -70.551480 -25.649934 -3.064332 -1.309709 5.018850 6.876910 52.828156 -9.956225 4.384931 0.869969 16.959928 2.005784 11.091520 0.000000 0.000000 0.000000 0.004807 2.273315 1.752129 3.898828 -1.240160 13.723535 0.000000 0.000000 0.000000 37.464108 -13.025302 27.492996 -48.661616 2.877518 -21.145679 0.000000 0.000000 0.000000 17.571605 2.921690 3.185795 -21.379429 0.812338 9.063161 0.000000 0.000000 0.000000 -14.811758 12.923122 16.197478 11.387309 -11.602062 -6.031166 0.000000 0.000000 0.000000 -6.804327 -9.614475 23.056034 78.186655 61.396885 103.332519 -76.121266 18.843192 -2.894354 -4.874623 -3.304187 -58.637365 -17.101494 -1.887321 5.232073 -17.300911 14.210729 -26.477258 0.000000 0.000000 0.000000 -1.631828 5.229871 -2.686843 -22.872377 3.516995 -14.830864 0.000000 0.000000 0.000000 4.675917 22.461667 -20.410890 -24.722499 -0.313865 7.365289 0.000000 0.000000 0.000000 6.761435 11.814196 -4.309213 -31.975018 0.059906 -11.345139 0.000000 0.000000 0.000000 -46.901745 2.252267 -7.035149 28.837733 5.508562 8.681164 0.000000 0.000000 0.000000 
-0.634094 0.965599 -0.050888 -151.070248 78.642650 -157.311537 -0.293224 -1.847317 6.924988 3.248869 -1.721208 -5.026008 28.963962 11.888905 31.708110 0.000000 0.000000 0.000000 15.404925 -0.215240 -7.515459 -15.176659 -0.230772 12.379546 66.407178 8.019662 24.040171 0.000000 0.000000 0.000000 7.860395 -1.971413 10.061794 -21.245247 -1.050772 -17.762397 31.715787 39.172874 34.127575 4.094111 -3.371118 -29.133035 0.000000 0.000000 0.000000 12.546087 -8.217064 -19.104126 -89.480784 16.960821 -71.626812 -25.184976 -2.775414 -1.486082 5.039757 6.915282 52.886015 -9.568118 4.418082 0.926846 17.569958 2.845940 12.900045 0.000000 0.000000 0.000000 3.357551 1.349701 2.388551 -0.873562 -0.361083 15.541275 0.000000 0.000000 0.000000 45.962083 -15.794413 28.437789 -56.794357 4.493278 -20.358108 0.000000 0.000000 0.000000 22.265614 2.783933 2.350305 -26.144168 1.749044 12.282690 0.000000 0.000000 0.000000 -12.831425 12.145980 15.260528 8.081987 -11.902484 -4.666203 0.000000 0.000000 0.000000 -6.777812 -9.235896 24.462100 79.745354 60.148885 103.033207 -80.474548 22.630883 -6.885930 -4.912096 -3.264615 -59.404806 -18.260567 -3.005498 6.234278 -17.046656 14.111199 -27.419400 0.000000 0.000000 0.000000 -2.131698 3.892445 -1.969232 -22.572219 4.429393 -17.315004 0.000000 0.000000 0.000000 5.351627 21.998064 -20.164004 -25.928563 -0.040812 6.763758 0.000000 0.000000 0.000000 6.674488 11.827008 -4.506315 -32.325578 -0.060086 -10.738952 0.000000 0.000000 0.000000 -46.013316 0.717993 -6.303787 27.356539 5.571353 7.847697 0.000000 0.000000 0.000000 
